M48
; DRILL file KiCad 10.0.3 date 2026-06-26T19:56:21
; FORMAT={-:-/ absolute / metric / decimal}
; #@! TF.CreationDate,2026-06-26T19:56:21+02:00
; #@! TF.GenerationSoftware,Kicad,Pcbnew,10.0.3
; #@! TF.FileFunction,Plated,1,4,PTH
FMAT,2
METRIC
; #@! TA.AperFunction,Plated,PTH,ViaDrill
T1C0.500
; #@! TA.AperFunction,Plated,PTH,ComponentDrill
T2C0.800
; #@! TA.AperFunction,Plated,PTH,ComponentDrill
T3C0.900
; #@! TA.AperFunction,Plated,PTH,ComponentDrill
T4C1.000
; #@! TA.AperFunction,Plated,PTH,ComponentDrill
T5C1.100
; #@! TA.AperFunction,Plated,PTH,ComponentDrill
T6C1.300
; #@! TA.AperFunction,Plated,PTH,ComponentDrill
T7C3.000
; #@! TA.AperFunction,Plated,PTH,ComponentDrill
T8C3.500
%
G90
G05
T1
X94.25Y-62.75
X94.25Y-64.75
X94.25Y-66.75
X94.25Y-68.75
X94.25Y-97.75
X94.25Y-99.75
X94.25Y-101.4
X94.25Y-103.0
X94.25Y-105.0
X94.5Y-70.5
X96.25Y-62.75
X96.25Y-64.75
X96.25Y-68.75
X96.25Y-70.75
X96.25Y-97.75
X96.25Y-99.75
X96.25Y-103.0
X96.25Y-105.0
X98.0Y-97.7
X98.1Y-105.0
X98.25Y-62.75
X98.25Y-70.75
X99.75Y-97.75
X99.75Y-99.75
X99.75Y-103.0
X99.75Y-105.0
X100.0Y-64.75
X100.0Y-68.75
X100.75Y-63.0
X101.0Y-70.5
X101.25Y-67.0
X101.7Y-101.4
X101.75Y-97.75
X101.75Y-99.75
X101.75Y-103.0
X101.75Y-105.0
X103.0Y-63.0
X103.0Y-65.0
X103.0Y-67.0
X103.0Y-69.0
X103.0Y-71.0
X105.0Y-63.0
X105.0Y-65.0
X105.0Y-67.0
X105.0Y-69.0
X105.0Y-71.0
X105.0Y-73.0
X105.0Y-75.0
X105.0Y-77.0
X105.0Y-79.0
X105.0Y-81.0
X107.0Y-63.0
X107.0Y-65.0
X107.0Y-67.0
X107.0Y-69.0
X107.0Y-71.0
X107.0Y-73.0
X107.0Y-75.0
X107.0Y-77.0
X107.0Y-79.0
X107.0Y-81.0
X109.0Y-63.0
X109.0Y-65.0
X109.0Y-67.0
X109.0Y-69.0
X109.0Y-75.0
X109.0Y-77.0
X109.0Y-79.0
X109.0Y-81.0
X111.0Y-63.0
X111.0Y-65.0
X111.0Y-67.0
X111.0Y-69.0
X111.0Y-75.0
X111.0Y-77.0
X111.0Y-79.0
X111.0Y-81.0
X111.0Y-89.0
X111.0Y-91.0
X111.0Y-93.25
X111.0Y-95.25
X113.0Y-63.0
X113.0Y-65.0
X113.0Y-67.0
X113.0Y-69.0
X113.0Y-71.0
X113.0Y-73.0
X113.0Y-75.0
X113.0Y-77.0
X113.0Y-79.0
X113.0Y-81.0
X113.0Y-87.0
X113.0Y-89.0
X113.0Y-91.0
X113.0Y-93.25
X113.0Y-95.25
X115.0Y-63.0
X115.0Y-65.0
X115.0Y-67.0
X115.0Y-69.0
X115.0Y-71.0
X115.0Y-73.0
X115.0Y-75.0
X115.0Y-77.0
X115.0Y-79.0
X115.0Y-81.0
X115.0Y-89.0
X115.0Y-91.0
X115.0Y-93.25
X115.0Y-95.25
X117.0Y-63.0
X117.0Y-65.0
X117.0Y-67.0
X117.0Y-69.0
X117.0Y-71.0
X117.0Y-73.0
X117.0Y-75.0
X117.0Y-77.0
X117.0Y-79.0
X117.0Y-81.0
X117.25Y-93.0
X117.25Y-95.0
X119.0Y-63.0
X119.0Y-65.0
X119.0Y-67.0
X119.0Y-69.0
X119.0Y-71.0
X119.0Y-73.0
X119.0Y-75.0
X119.0Y-77.0
X119.0Y-79.0
X119.0Y-81.0
X119.25Y-93.0
X119.25Y-95.0
X122.0Y-63.0
X122.0Y-65.0
X122.0Y-67.0
X122.0Y-69.0
X122.0Y-75.0
X122.0Y-77.0
X122.0Y-79.0
X122.0Y-81.0
X122.0Y-93.0
X122.0Y-95.0
X122.25Y-87.0
X122.25Y-89.0
X122.25Y-91.0
X124.0Y-93.0
X124.0Y-95.0
X124.25Y-87.0
X124.25Y-89.0
X124.25Y-91.0
X125.0Y-63.0
X125.0Y-65.0
X125.0Y-67.0
X125.0Y-69.0
X125.0Y-71.0
X125.0Y-73.0
X125.0Y-75.0
X125.0Y-77.0
X125.0Y-79.0
X125.0Y-81.0
X126.0Y-93.0
X126.0Y-95.0
X126.25Y-87.0
X126.25Y-89.0
X126.25Y-91.0
X127.0Y-63.0
X127.0Y-65.0
X127.0Y-67.0
X127.0Y-69.0
X127.0Y-71.0
X127.0Y-73.0
X127.0Y-75.0
X127.0Y-77.0
X127.0Y-79.0
X127.0Y-81.0
X128.0Y-93.0
X128.0Y-95.0
X129.0Y-63.0
X129.0Y-65.0
X129.0Y-67.0
X129.0Y-69.0
X129.0Y-71.0
X129.0Y-73.0
X129.0Y-75.0
X129.0Y-77.0
X129.0Y-79.0
X129.0Y-81.0
X130.0Y-93.0
X130.0Y-95.0
X131.0Y-112.25
X131.0Y-114.25
X131.0Y-116.25
X131.0Y-118.25
X131.0Y-120.25
X132.0Y-63.0
X132.0Y-65.0
X132.0Y-67.0
X132.0Y-69.0
X132.0Y-75.0
X132.0Y-77.0
X132.0Y-79.0
X132.0Y-81.0
X132.0Y-93.0
X132.0Y-95.0
X133.0Y-112.25
X133.0Y-114.25
X133.0Y-116.25
X133.0Y-118.25
X133.0Y-120.25
X134.0Y-63.0
X134.0Y-65.0
X134.0Y-67.0
X134.0Y-69.0
X134.0Y-75.0
X134.0Y-77.0
X134.0Y-79.0
X134.0Y-81.0
X134.0Y-89.0
X134.0Y-91.0
X134.0Y-93.0
X134.0Y-95.0
X135.0Y-112.25
X135.0Y-114.25
X135.0Y-116.25
X135.0Y-118.25
X135.0Y-120.25
X136.0Y-87.0
X136.0Y-89.0
X136.0Y-91.0
X136.0Y-93.0
X136.0Y-95.0
X137.0Y-63.0
X137.0Y-65.0
X137.0Y-67.0
X137.0Y-69.0
X137.0Y-71.0
X137.0Y-73.0
X137.0Y-75.0
X137.0Y-77.0
X137.0Y-79.0
X137.0Y-81.0
X137.0Y-112.25
X137.0Y-114.25
X137.0Y-116.25
X137.0Y-118.25
X137.0Y-120.25
X138.0Y-89.0
X138.0Y-91.0
X138.0Y-93.0
X138.0Y-95.0
X139.0Y-63.0
X139.0Y-65.0
X139.0Y-67.0
X139.0Y-69.0
X139.0Y-71.0
X139.0Y-73.0
X139.0Y-75.0
X139.0Y-77.0
X139.0Y-79.0
X139.0Y-81.0
X139.0Y-112.25
X139.0Y-114.25
X139.0Y-116.25
X139.0Y-118.25
X139.0Y-120.25
X140.0Y-93.0
X140.0Y-95.0
X141.0Y-63.0
X141.0Y-65.0
X141.0Y-67.0
X141.0Y-69.0
X141.0Y-71.0
X141.0Y-73.0
X141.0Y-75.0
X141.0Y-77.0
X141.0Y-79.0
X141.0Y-81.0
X142.0Y-93.0
X142.0Y-95.0
X143.0Y-63.0
X143.0Y-65.0
X143.0Y-67.0
X143.0Y-69.0
X143.0Y-75.0
X143.0Y-77.0
X143.0Y-79.0
X143.0Y-81.0
X144.0Y-93.0
X144.0Y-95.0
X145.0Y-63.0
X145.0Y-65.0
X145.0Y-67.0
X145.0Y-69.0
X145.0Y-75.0
X145.0Y-77.0
X145.0Y-79.0
X145.0Y-81.0
X145.25Y-89.0
X145.25Y-91.0
X146.0Y-93.0
X146.0Y-95.0
X147.25Y-87.0
X147.25Y-89.0
X147.25Y-91.0
X148.0Y-63.0
X148.0Y-65.0
X148.0Y-67.0
X148.0Y-69.0
X148.0Y-71.0
X148.0Y-73.0
X148.0Y-75.0
X148.0Y-77.0
X148.0Y-79.0
X148.0Y-81.0
X148.0Y-93.0
X148.0Y-95.0
X149.25Y-89.0
X149.25Y-91.0
X150.0Y-63.0
X150.0Y-65.0
X150.0Y-67.0
X150.0Y-69.0
X150.0Y-71.0
X150.0Y-73.0
X150.0Y-75.0
X150.0Y-77.0
X150.0Y-79.0
X150.0Y-81.0
X150.0Y-93.0
X150.0Y-95.0
X152.0Y-63.0
X152.0Y-65.0
X152.0Y-67.0
X152.0Y-69.0
X152.0Y-71.0
X152.0Y-73.0
X152.0Y-75.0
X152.0Y-77.0
X152.0Y-79.0
X152.0Y-81.0
X152.0Y-93.0
X152.0Y-95.0
X154.0Y-93.0
X154.0Y-95.0
X155.0Y-63.0
X155.0Y-65.0
X155.0Y-67.0
X155.0Y-69.0
X155.0Y-75.0
X155.0Y-77.0
X155.0Y-79.0
X155.0Y-81.0
X156.0Y-93.0
X156.0Y-95.0
X157.0Y-63.0
X157.0Y-65.0
X157.0Y-67.0
X157.0Y-69.0
X157.0Y-75.0
X157.0Y-77.0
X157.0Y-79.0
X157.0Y-81.0
X157.0Y-89.0
X157.0Y-91.0
X158.0Y-93.0
X158.0Y-95.0
X159.0Y-87.0
X159.0Y-89.0
X159.0Y-91.0
X160.0Y-63.0
X160.0Y-65.0
X160.0Y-67.0
X160.0Y-69.0
X160.0Y-71.0
X160.0Y-73.0
X160.0Y-75.0
X160.0Y-77.0
X160.0Y-79.0
X160.0Y-81.0
X160.0Y-93.0
X161.0Y-89.0
X161.0Y-91.0
X162.0Y-63.0
X162.0Y-65.0
X162.0Y-67.0
X162.0Y-69.0
X162.0Y-71.0
X162.0Y-73.0
X162.0Y-75.0
X162.0Y-77.0
X162.0Y-79.0
X162.0Y-81.0
X162.0Y-93.0
X162.0Y-95.0
X164.0Y-63.0
X164.0Y-65.0
X164.0Y-67.0
X164.0Y-69.0
X164.0Y-71.0
X164.0Y-73.0
X164.0Y-75.0
X164.0Y-77.0
X164.0Y-79.0
X164.0Y-81.0
X164.0Y-93.0
X164.0Y-95.0
X166.0Y-63.0
X166.0Y-65.0
X166.0Y-67.0
X166.0Y-69.0
X166.0Y-75.0
X166.0Y-77.0
X166.0Y-79.0
X166.0Y-81.0
X166.0Y-93.0
X166.0Y-95.0
X168.0Y-63.0
X168.0Y-65.0
X168.0Y-67.0
X168.0Y-69.0
X168.0Y-75.0
X168.0Y-77.0
X168.0Y-79.0
X168.0Y-81.0
X168.0Y-93.0
X168.0Y-95.0
X168.5Y-89.0
X168.5Y-91.0
X170.0Y-93.0
X170.0Y-95.0
X170.5Y-87.0
X170.5Y-89.0
X170.5Y-91.0
X171.0Y-63.0
X171.0Y-65.0
X171.0Y-67.0
X171.0Y-69.0
X171.0Y-71.0
X171.0Y-73.0
X171.0Y-75.0
X171.0Y-77.0
X171.0Y-79.0
X171.0Y-81.0
X172.0Y-93.0
X172.0Y-95.0
X172.5Y-89.0
X172.5Y-91.0
X173.0Y-63.0
X173.0Y-65.0
X173.0Y-67.0
X173.0Y-69.0
X173.0Y-71.0
X173.0Y-73.0
X173.0Y-75.0
X173.0Y-77.0
X173.0Y-79.0
X173.0Y-81.0
X174.0Y-93.0
X174.0Y-95.0
X175.0Y-63.0
X175.0Y-65.0
X175.0Y-67.0
X175.0Y-69.0
X175.0Y-71.0
X175.0Y-73.0
X175.0Y-75.0
X175.0Y-77.0
X175.0Y-79.0
X175.0Y-81.0
X176.0Y-93.0
X176.0Y-95.0
X178.0Y-63.0
X178.0Y-65.0
X178.0Y-67.0
X178.0Y-69.0
X178.0Y-75.0
X178.0Y-77.0
X178.0Y-79.0
X178.0Y-81.0
X178.0Y-93.0
X178.0Y-95.0
X180.0Y-63.0
X180.0Y-65.0
X180.0Y-67.0
X180.0Y-69.0
X180.0Y-75.0
X180.0Y-77.0
X180.0Y-79.0
X180.0Y-81.0
X180.0Y-93.0
X180.0Y-95.0
X180.5Y-89.0
X180.5Y-91.0
X182.0Y-93.0
X182.0Y-95.0
X182.5Y-87.0
X182.5Y-89.0
X182.5Y-91.0
X183.0Y-63.0
X183.0Y-65.0
X183.0Y-67.0
X183.0Y-69.0
X183.0Y-71.0
X183.0Y-73.0
X183.0Y-75.0
X183.0Y-77.0
X183.0Y-79.0
X183.0Y-81.0
X184.0Y-93.0
X184.0Y-95.0
X184.5Y-89.0
X184.5Y-91.0
X185.0Y-63.0
X185.0Y-65.0
X185.0Y-67.0
X185.0Y-69.0
X185.0Y-71.0
X185.0Y-73.0
X185.0Y-75.0
X185.0Y-77.0
X185.0Y-79.0
X185.0Y-81.0
X186.0Y-93.0
X186.0Y-95.0
X187.0Y-63.0
X187.0Y-65.0
X187.0Y-67.0
X187.0Y-69.0
X187.0Y-71.0
X187.0Y-73.0
X187.0Y-75.0
X187.0Y-77.0
X187.0Y-79.0
X187.0Y-81.0
X188.0Y-93.0
X188.0Y-95.0
X189.0Y-63.0
X189.0Y-65.0
X189.0Y-67.0
X189.0Y-69.0
X189.0Y-75.0
X189.0Y-77.0
X189.0Y-79.0
X189.0Y-81.0
X190.0Y-93.0
X190.0Y-95.0
X191.0Y-63.0
X191.0Y-65.0
X191.0Y-67.0
X191.0Y-69.0
X191.0Y-75.0
X191.0Y-77.0
X191.0Y-79.0
X191.0Y-81.0
X192.0Y-89.0
X192.0Y-91.0
X192.0Y-93.0
X192.0Y-95.0
X194.0Y-63.0
X194.0Y-65.0
X194.0Y-67.0
X194.0Y-69.0
X194.0Y-71.0
X194.0Y-73.0
X194.0Y-75.0
X194.0Y-77.0
X194.0Y-79.0
X194.0Y-81.0
X194.0Y-87.0
X194.0Y-89.0
X194.0Y-91.0
X194.0Y-93.0
X194.0Y-95.0
X194.25Y-97.75
X194.25Y-99.75
X194.25Y-101.75
X194.25Y-103.75
X196.0Y-63.0
X196.0Y-65.0
X196.0Y-67.0
X196.0Y-69.0
X196.0Y-71.0
X196.0Y-73.0
X196.0Y-75.0
X196.0Y-77.0
X196.0Y-79.0
X196.0Y-81.0
X196.25Y-87.0
X196.25Y-89.0
X196.25Y-91.0
X196.25Y-93.0
X196.25Y-95.0
X196.25Y-97.75
X196.25Y-103.75
X196.25Y-105.75
X198.0Y-63.0
X198.0Y-65.0
X198.0Y-67.0
X198.0Y-69.0
X198.0Y-71.0
X198.0Y-73.0
X198.0Y-75.0
X198.0Y-77.0
X198.0Y-79.0
X198.0Y-81.0
X198.25Y-87.0
X198.25Y-89.0
X198.25Y-91.0
X198.25Y-93.0
X198.25Y-95.0
X198.25Y-97.75
X198.25Y-105.75
X200.0Y-63.0
X200.0Y-65.0
X200.0Y-67.0
X200.0Y-69.0
X200.0Y-71.0
X200.0Y-73.0
X200.0Y-75.0
X200.0Y-77.0
X200.0Y-79.0
X200.0Y-81.0
X200.25Y-97.75
X200.25Y-103.75
X200.25Y-105.75
X200.5Y-87.0
X200.5Y-89.0
X200.5Y-91.0
X200.5Y-93.0
X200.5Y-95.0
X202.25Y-97.75
X202.25Y-99.75
X202.25Y-101.75
X202.25Y-103.75
X202.5Y-89.0
X202.5Y-91.0
X202.5Y-93.0
X202.5Y-95.0
T2
X98.0Y-77.9
X98.0Y-90.6
X107.2Y-88.2
X107.2Y-100.9
X109.795Y-105.525
X109.795Y-108.065
X117.415Y-105.525
X117.415Y-108.065
X117.5Y-112.65
X117.5Y-125.35
X118.8Y-88.2
X118.8Y-100.9
X126.25Y-105.432
X126.25Y-107.932
X126.25Y-124.5
X126.25Y-129.5
X130.4Y-88.2
X130.4Y-100.9
X132.25Y-106.75
X135.75Y-126.068
X135.75Y-128.568
X137.25Y-106.75
X141.9Y-88.2
X141.9Y-100.9
X144.0Y-105.432
X144.0Y-107.932
X150.75Y-116.65
X150.75Y-129.35
X151.0Y-108.0
X151.0Y-113.0
X153.5Y-88.2
X153.5Y-100.9
X155.395Y-120.39
X155.395Y-122.93
X155.395Y-125.47
X155.395Y-128.01
X155.445Y-106.44
X155.445Y-108.98
X155.445Y-111.52
X155.445Y-114.06
X163.015Y-120.39
X163.015Y-122.93
X163.015Y-125.47
X163.015Y-128.01
X163.065Y-106.44
X163.065Y-108.98
X163.065Y-111.52
X163.065Y-114.06
X165.0Y-88.2
X165.0Y-100.9
X168.0Y-121.9
X168.0Y-126.9
X172.85Y-125.2
X172.9Y-108.0
X172.9Y-112.2
X172.9Y-116.4
X172.9Y-120.8
X176.6Y-88.2
X176.6Y-100.9
X185.55Y-125.2
X185.6Y-108.0
X185.6Y-112.2
X185.6Y-116.4
X185.6Y-120.8
X188.1Y-88.2
X188.1Y-100.9
T3
X194.0Y-113.265
X196.54Y-113.265
T4
X105.118Y-116.0
X110.118Y-116.0
X159.95Y-96.25
X159.95Y-98.85
X195.2Y-119.8
X195.2Y-127.4
T5
X98.0Y-113.92
X98.0Y-124.08
X126.25Y-113.71
X126.25Y-116.25
X126.25Y-118.79
T6
X168.0Y-107.96
X168.0Y-113.04
T7
X98.0Y-101.25
X98.1Y-66.5
X198.25Y-101.25
T8
X109.8Y-71.57
X121.35Y-71.57
X132.9Y-71.57
X144.45Y-71.57
X156.0Y-71.57
X167.55Y-71.57
X179.1Y-71.57
X190.65Y-71.57
M30
