M48
; DRILL file KiCad 10.0.0 date 2026-07-24T18:05:17
; FORMAT={-:-/ absolute / metric / decimal}
; #@! TF.CreationDate,2026-07-24T18:05:17+02:00
; #@! TF.GenerationSoftware,Kicad,Pcbnew,10.0.0
; #@! TF.FileFunction,Plated,1,4,PTH
FMAT,2
METRIC
; #@! TA.AperFunction,Plated,PTH,ViaDrill
T1C0.300
; #@! TA.AperFunction,Plated,PTH,ViaDrill
T2C0.500
; #@! TA.AperFunction,Plated,PTH,ComponentDrill
T3C0.600
; #@! TA.AperFunction,Plated,PTH,ComponentDrill
T4C0.800
; #@! TA.AperFunction,Plated,PTH,ComponentDrill
T5C0.900
; #@! TA.AperFunction,Plated,PTH,ComponentDrill
T6C1.000
; #@! TA.AperFunction,Plated,PTH,ComponentDrill
T7C1.100
; #@! TA.AperFunction,Plated,PTH,ComponentDrill
T8C1.300
; #@! TA.AperFunction,Plated,PTH,ComponentDrill
T9C1.350
; #@! TA.AperFunction,Plated,PTH,ComponentDrill
T10C3.500
; #@! TA.AperFunction,Plated,PTH,ComponentDrill
T11C4.000
%
G90
G05
T1
X145.0Y-124.0
T2
X104.0Y-64.0
X104.0Y-66.0
X104.0Y-68.0
X106.2Y-64.0
X106.2Y-66.0
X106.2Y-68.0
X106.2Y-70.7
X106.2Y-72.7
X106.2Y-75.0
X106.2Y-77.0
X106.2Y-79.0
X108.5Y-64.0
X108.5Y-66.0
X108.5Y-68.0
X108.5Y-75.0
X108.5Y-77.0
X108.5Y-79.0
X110.75Y-64.0
X110.75Y-66.0
X110.75Y-68.0
X110.75Y-75.0
X110.75Y-77.0
X110.75Y-79.0
X110.75Y-91.7
X110.75Y-93.7
X110.75Y-95.7
X113.0Y-64.0
X113.0Y-66.0
X113.0Y-68.0
X113.0Y-70.6
X113.0Y-72.6
X113.0Y-75.0
X113.0Y-77.0
X113.0Y-79.0
X113.0Y-91.7
X113.0Y-93.7
X113.0Y-95.7
X115.25Y-64.0
X115.25Y-66.0
X115.25Y-68.0
X115.25Y-75.0
X115.25Y-77.0
X115.25Y-79.0
X115.25Y-91.7
X115.25Y-93.7
X115.25Y-95.7
X115.3Y-70.6
X115.3Y-72.6
X117.7Y-64.0
X117.7Y-66.0
X117.7Y-68.0
X117.7Y-70.6
X117.7Y-72.6
X117.7Y-75.0
X117.7Y-77.0
X117.7Y-79.0
X117.7Y-91.7
X117.7Y-93.7
X117.7Y-95.7
X120.15Y-64.0
X120.15Y-66.0
X120.15Y-68.0
X120.15Y-75.0
X120.15Y-77.0
X120.15Y-79.0
X120.15Y-91.7
X120.15Y-93.7
X120.15Y-95.7
X122.4Y-64.0
X122.4Y-66.0
X122.4Y-68.0
X122.4Y-75.0
X122.4Y-77.0
X122.4Y-79.0
X122.4Y-91.7
X122.4Y-93.7
X122.4Y-95.7
X124.65Y-64.0
X124.65Y-66.0
X124.65Y-68.0
X124.65Y-75.0
X124.65Y-77.0
X124.65Y-79.0
X124.65Y-91.7
X124.65Y-93.7
X124.65Y-95.7
X124.7Y-70.6
X124.7Y-72.6
X126.9Y-64.0
X126.9Y-66.0
X126.9Y-68.0
X126.9Y-70.6
X126.9Y-72.6
X126.9Y-75.0
X126.9Y-77.0
X126.9Y-79.0
X126.9Y-91.7
X126.9Y-93.7
X126.9Y-95.7
X129.2Y-64.0
X129.2Y-66.0
X129.2Y-68.0
X129.2Y-70.6
X129.2Y-72.6
X129.2Y-75.0
X129.2Y-77.0
X129.2Y-79.0
X129.2Y-91.7
X129.2Y-93.7
X129.2Y-95.7
X131.0Y-112.25
X131.0Y-114.25
X131.0Y-116.25
X131.0Y-118.25
X131.0Y-120.25
X131.65Y-64.0
X131.65Y-66.0
X131.65Y-68.0
X131.65Y-75.0
X131.65Y-77.0
X131.65Y-79.0
X131.65Y-91.7
X131.65Y-93.7
X131.65Y-95.7
X133.0Y-112.25
X133.0Y-114.25
X133.0Y-116.25
X133.0Y-118.25
X133.0Y-120.25
X133.9Y-64.0
X133.9Y-66.0
X133.9Y-68.0
X133.9Y-75.0
X133.9Y-77.0
X133.9Y-79.0
X133.9Y-91.7
X133.9Y-93.7
X133.9Y-95.7
X135.0Y-112.25
X135.0Y-114.25
X135.0Y-116.25
X135.0Y-118.25
X135.0Y-120.25
X136.1Y-70.6
X136.1Y-72.6
X136.15Y-64.0
X136.15Y-66.0
X136.15Y-68.0
X136.15Y-75.0
X136.15Y-77.0
X136.15Y-79.0
X136.15Y-91.7
X136.15Y-93.7
X136.15Y-95.7
X137.0Y-112.25
X137.0Y-114.25
X137.0Y-116.25
X137.0Y-118.25
X137.0Y-120.25
X138.4Y-64.0
X138.4Y-66.0
X138.4Y-68.0
X138.4Y-70.6
X138.4Y-72.6
X138.4Y-75.0
X138.4Y-77.0
X138.4Y-79.0
X138.4Y-91.7
X138.4Y-93.7
X138.4Y-95.7
X139.0Y-112.25
X139.0Y-114.25
X139.0Y-116.25
X139.0Y-118.25
X139.0Y-120.25
X140.7Y-64.0
X140.7Y-66.0
X140.7Y-68.0
X140.7Y-70.6
X140.7Y-72.6
X140.7Y-75.0
X140.7Y-77.0
X140.7Y-79.0
X140.7Y-91.7
X140.7Y-93.7
X140.7Y-95.7
X143.05Y-64.0
X143.05Y-66.0
X143.05Y-68.0
X143.05Y-75.0
X143.05Y-77.0
X143.05Y-79.0
X143.05Y-91.7
X143.05Y-93.7
X143.05Y-95.7
X145.3Y-64.0
X145.3Y-66.0
X145.3Y-68.0
X145.3Y-75.0
X145.3Y-77.0
X145.3Y-79.0
X145.3Y-91.7
X145.3Y-93.7
X145.3Y-95.7
X147.55Y-64.0
X147.55Y-66.0
X147.55Y-68.0
X147.55Y-75.0
X147.55Y-77.0
X147.55Y-79.0
X147.55Y-91.7
X147.55Y-93.7
X147.55Y-95.7
X147.6Y-70.6
X147.6Y-72.6
X149.8Y-64.0
X149.8Y-66.0
X149.8Y-68.0
X149.8Y-70.6
X149.8Y-72.6
X149.8Y-75.0
X149.8Y-77.0
X149.8Y-79.0
X149.8Y-91.7
X149.8Y-93.7
X149.8Y-95.7
X152.2Y-64.0
X152.2Y-66.0
X152.2Y-68.0
X152.2Y-70.6
X152.2Y-72.6
X152.2Y-75.0
X152.2Y-77.0
X152.2Y-79.0
X152.2Y-91.7
X152.2Y-93.7
X152.2Y-95.7
X154.75Y-64.0
X154.75Y-66.0
X154.75Y-68.0
X154.75Y-75.0
X154.75Y-77.0
X154.75Y-79.0
X154.75Y-91.7
X154.75Y-93.7
X154.75Y-95.7
X157.0Y-64.0
X157.0Y-66.0
X157.0Y-68.0
X157.0Y-75.0
X157.0Y-77.0
X157.0Y-79.0
X157.0Y-91.7
X157.0Y-93.7
X157.0Y-95.7
X159.2Y-70.6
X159.2Y-72.6
X159.25Y-64.0
X159.25Y-66.0
X159.25Y-68.0
X159.25Y-75.0
X159.25Y-77.0
X159.25Y-79.0
X159.25Y-91.7
X159.25Y-93.7
X161.5Y-64.0
X161.5Y-66.0
X161.5Y-68.0
X161.5Y-70.6
X161.5Y-72.6
X161.5Y-75.0
X161.5Y-77.0
X161.5Y-79.0
X161.5Y-91.7
X161.5Y-93.7
X161.5Y-95.7
X163.7Y-64.0
X163.7Y-66.0
X163.7Y-68.0
X163.7Y-70.6
X163.7Y-72.6
X163.7Y-75.0
X163.7Y-77.0
X163.7Y-79.0
X163.7Y-91.7
X163.7Y-93.7
X163.7Y-95.7
X166.05Y-64.0
X166.05Y-66.0
X166.05Y-68.0
X166.05Y-75.0
X166.05Y-77.0
X166.05Y-79.0
X166.05Y-91.7
X166.05Y-93.7
X166.05Y-95.7
X168.3Y-64.0
X168.3Y-66.0
X168.3Y-68.0
X168.3Y-75.0
X168.3Y-77.0
X168.3Y-79.0
X168.3Y-91.7
X168.3Y-93.7
X168.3Y-95.7
X170.5Y-70.6
X170.5Y-72.6
X170.55Y-64.0
X170.55Y-66.0
X170.55Y-68.0
X170.55Y-75.0
X170.55Y-77.0
X170.55Y-79.0
X170.55Y-91.7
X170.55Y-93.7
X170.55Y-95.7
X172.8Y-64.0
X172.8Y-66.0
X172.8Y-68.0
X172.8Y-70.6
X172.8Y-72.6
X172.8Y-75.0
X172.8Y-77.0
X172.8Y-79.0
X172.8Y-91.7
X172.8Y-93.7
X172.8Y-95.7
X175.2Y-64.0
X175.2Y-66.0
X175.2Y-68.0
X175.2Y-70.6
X175.2Y-72.6
X175.2Y-75.0
X175.2Y-77.0
X175.2Y-79.0
X175.2Y-91.7
X175.2Y-93.7
X175.2Y-95.7
X177.55Y-64.0
X177.55Y-66.0
X177.55Y-68.0
X177.55Y-75.0
X177.55Y-77.0
X177.55Y-79.0
X177.55Y-91.7
X177.55Y-93.7
X177.55Y-95.7
X179.8Y-64.0
X179.8Y-66.0
X179.8Y-68.0
X179.8Y-75.0
X179.8Y-77.0
X179.8Y-79.0
X179.8Y-91.7
X179.8Y-93.7
X179.8Y-95.7
X182.0Y-70.6
X182.0Y-72.6
X182.05Y-64.0
X182.05Y-66.0
X182.05Y-68.0
X182.05Y-75.0
X182.05Y-77.0
X182.05Y-79.0
X182.05Y-91.7
X182.05Y-93.7
X182.05Y-95.7
X184.3Y-64.0
X184.3Y-66.0
X184.3Y-68.0
X184.3Y-70.6
X184.3Y-72.6
X184.3Y-75.0
X184.3Y-77.0
X184.3Y-79.0
X184.3Y-91.7
X184.3Y-93.7
X184.3Y-95.7
X186.7Y-64.0
X186.7Y-66.0
X186.7Y-68.0
X186.7Y-70.6
X186.7Y-72.6
X186.7Y-75.0
X186.7Y-77.0
X186.7Y-79.0
X186.7Y-91.7
X186.7Y-93.7
X186.7Y-95.7
X189.1Y-64.0
X189.1Y-66.0
X189.1Y-68.0
X189.1Y-75.0
X189.1Y-77.0
X189.1Y-79.0
X189.1Y-91.7
X189.1Y-93.7
X189.1Y-95.7
X191.5Y-64.0
X191.5Y-66.0
X191.5Y-68.0
X191.5Y-75.0
X191.5Y-77.0
X191.5Y-79.0
X191.5Y-91.7
X191.5Y-93.7
X191.5Y-95.7
X193.9Y-64.0
X193.9Y-66.0
X193.9Y-68.0
X193.9Y-70.2
X193.9Y-72.7
X193.9Y-75.0
X193.9Y-77.0
X193.9Y-79.0
X193.9Y-91.7
X193.9Y-93.7
X193.9Y-95.7
X196.2Y-64.0
X196.2Y-66.0
X196.2Y-68.0
X196.2Y-70.2
X196.2Y-72.7
X196.2Y-75.0
X196.2Y-77.0
X196.2Y-79.0
X196.2Y-87.7
X196.2Y-89.7
X196.2Y-91.7
X196.2Y-93.7
X196.2Y-95.7
X198.6Y-64.0
X198.6Y-66.0
X198.6Y-68.0
X198.6Y-70.2
X198.6Y-72.7
X198.6Y-75.0
X198.6Y-77.0
X198.6Y-79.0
X198.6Y-87.7
X198.6Y-89.7
X198.6Y-91.7
X198.6Y-93.7
X198.6Y-95.7
X201.0Y-64.0
X201.0Y-66.0
X201.0Y-68.0
X201.0Y-70.2
X201.0Y-72.7
X201.0Y-75.0
X201.0Y-77.0
X201.0Y-79.0
X201.0Y-87.7
X201.0Y-89.7
X201.0Y-91.7
X201.0Y-93.7
X201.0Y-95.7
T3
X95.0Y-66.5
X95.0Y-101.25
X95.879Y-64.379
X95.879Y-68.621
X95.879Y-99.129
X95.879Y-103.371
X98.0Y-63.5
X98.0Y-69.5
X98.0Y-98.25
X98.0Y-104.25
X100.121Y-64.379
X100.121Y-68.621
X100.121Y-99.129
X100.121Y-103.371
X101.0Y-66.5
X101.0Y-101.25
X194.8Y-101.25
X195.679Y-99.129
X195.679Y-103.371
X197.8Y-98.25
X197.8Y-104.25
X199.921Y-99.129
X199.921Y-103.371
X200.8Y-101.25
T4
X98.0Y-77.9
X98.0Y-90.6
X107.2Y-88.2
X107.2Y-100.9
X109.795Y-105.525
X109.795Y-108.065
X117.415Y-105.525
X117.415Y-108.065
X117.5Y-112.65
X117.5Y-125.35
X118.8Y-88.2
X118.8Y-100.9
X126.25Y-105.432
X126.25Y-107.932
X126.25Y-124.5
X126.25Y-129.5
X130.4Y-88.2
X130.4Y-100.9
X132.25Y-106.75
X135.75Y-126.068
X135.75Y-128.568
X137.25Y-106.75
X141.9Y-88.2
X141.9Y-100.9
X144.0Y-105.432
X144.0Y-107.932
X150.75Y-116.65
X150.75Y-129.35
X151.0Y-108.0
X151.0Y-113.0
X153.5Y-88.2
X153.5Y-100.9
X155.395Y-120.39
X155.395Y-122.93
X155.395Y-125.47
X155.395Y-128.01
X155.445Y-106.44
X155.445Y-108.98
X155.445Y-111.52
X155.445Y-114.06
X163.015Y-120.39
X163.015Y-122.93
X163.015Y-125.47
X163.015Y-128.01
X163.065Y-106.44
X163.065Y-108.98
X163.065Y-111.52
X163.065Y-114.06
X165.0Y-88.2
X165.0Y-100.9
X168.0Y-121.9
X168.0Y-126.9
X172.85Y-125.2
X172.9Y-108.0
X172.9Y-112.2
X172.9Y-116.4
X172.9Y-120.8
X176.6Y-88.2
X176.6Y-100.9
X185.55Y-125.2
X185.6Y-108.0
X185.6Y-112.2
X185.6Y-116.4
X185.6Y-120.8
X188.1Y-88.2
X188.1Y-100.9
T5
X194.0Y-113.265
X196.54Y-113.265
T6
X105.118Y-116.0
X110.118Y-116.0
X159.3Y-96.3
X159.3Y-98.9
X195.2Y-119.8
X195.2Y-127.4
T7
X98.0Y-113.92
X98.0Y-124.08
X112.34Y-88.23
X123.89Y-88.23
X126.25Y-113.71
X126.25Y-116.25
X126.25Y-118.79
X135.44Y-88.23
X146.99Y-88.23
X158.54Y-88.23
X170.09Y-88.23
X181.64Y-88.23
X193.19Y-88.23
T8
X104.96Y-125.6
X110.04Y-125.6
X168.0Y-107.96
X168.0Y-113.04
T9
X107.26Y-88.23
X118.81Y-88.23
X130.36Y-88.23
X141.91Y-88.23
X153.46Y-88.23
X165.01Y-88.23
X176.56Y-88.23
X188.11Y-88.23
T10
X109.8Y-71.57
X121.35Y-71.57
X132.9Y-71.57
X144.45Y-71.57
X156.0Y-71.57
X167.55Y-71.57
X179.1Y-71.57
X190.65Y-71.57
T11
X98.0Y-66.5
X98.0Y-101.25
X197.8Y-101.25
M30
